<?xml version="1.0" standalone="no"?><!DOCTYPE svg PUBLIC "-//W3C//DTD SVG 1.1//EN" "http://www.w3.org/Graphics/SVG/1.1/DTD/svg11.dtd"><svg t="1766241758083" class="icon" viewBox="0 0 1024 1024" version="1.1" xmlns="http://www.w3.org/2000/svg" p-id="2968" xmlns:xlink="http://www.w3.org/1999/xlink" width="200" height="200"><path d="M544 704h282.24c38.528 0 69.76-31.808 69.76-71.104V128h29.568c19.008 0 34.432-14.336 34.432-32s-15.424-32-34.432-32H98.432C79.424 64 64 78.336 64 96s15.424 32 34.432 32H128v504.896C128 672.192 159.232 704 197.76 704H480v192H358.4c-21.184 0-38.4 14.336-38.4 32s17.216 32 38.4 32h307.2c21.184 0 38.4-14.336 38.4-32s-17.216-32-38.4-32H544v-192zM832 128v504.896c0 4.16-2.88 7.104-5.76 7.104H197.76C194.944 640 192 637.056 192 632.896V128h640z" fill="#00489B" p-id="2969"></path></svg>