<?xml version="1.0" standalone="no"?><!DOCTYPE svg PUBLIC "-//W3C//DTD SVG 1.1//EN" "http://www.w3.org/Graphics/SVG/1.1/DTD/svg11.dtd"><svg t="1766191445823" class="icon" viewBox="0 0 1170 1024" version="1.1" xmlns="http://www.w3.org/2000/svg" p-id="28933" xmlns:xlink="http://www.w3.org/1999/xlink" width="228.515625" height="200"><path d="M56.758857 729.380571a172.032 172.032 0 0 0 124.928 42.422858 92.16 92.16 0 0 1-14.921143-48.566858v-18.724571a96.256 96.256 0 0 1-86.016-93.037714V164.425143a95.085714 95.085714 0 0 1 29.257143-67.291429 97.718857 97.718857 0 0 1 69.046857-26.916571h819.2a97.718857 97.718857 0 0 1 99.766857 94.208v447.341714a97.718857 97.718857 0 0 1-99.766857 94.208H633.709714l-35.401143 35.108572a113.810286 113.810286 0 0 1-14.921142 35.108571h409.6a170.569143 170.569143 0 0 0 120.539428-47.104 166.180571 166.180571 0 0 0 51.492572-117.028571V164.425143a165.888 165.888 0 0 0-51.492572-117.028572A170.569143 170.569143 0 0 0 992.987429 0.292571h-819.2A169.691429 169.691429 0 0 0 0.292571 164.717714v447.341715a167.643429 167.643429 0 0 0 56.466286 117.321142z m440.32 83.090286v-29.257143a60.562286 60.562286 0 0 0 43.300572-16.969143 58.514286 58.514286 0 0 0 18.139428-42.422857l237.568-229.083428a14.628571 14.628571 0 0 0 0-12.580572 14.921143 14.921143 0 0 0-9.362286-8.777143 13.750857 13.750857 0 0 0-12.288 0l-217.088 207.433143V482.742857a92.16 92.16 0 0 0-77.824-87.771428l-34.230857-6.729143-68.169143 134.582857-69.632-134.582857-32.768 6.729143a92.16 92.16 0 0 0-79.286857 87.771428v239.908572a60.269714 60.269714 0 0 0 17.554286 45.056 61.732571 61.732571 0 0 0 45.348571 18.139428v25.746286z m154.185143 60.562286h-128.438857a114.102857 114.102857 0 0 0-80.457143 32.475428 100.352 100.352 0 0 0-34.230857 75.483429V1024h353.718857v-43.008a99.181714 99.181714 0 0 0-32.768-75.483429 117.028571 117.028571 0 0 0-77.824-32.475428z m486.253714 32.475428a117.028571 117.028571 0 0 0-79.286857-32.475428h-128.438857a119.661714 119.661714 0 0 0-80.457143 32.475428 104.448 104.448 0 0 0-32.768 75.483429V1024H1170.285714v-43.885714a104.448 104.448 0 0 0-32.768-74.605715zM241.664 873.033143H113.225143a114.102857 114.102857 0 0 0-79.286857 32.475428A105.910857 105.910857 0 0 0 0 980.114286v43.008h353.718857V980.114286a99.181714 99.181714 0 0 0-32.768-75.483429 114.102857 114.102857 0 0 0-79.286857-31.597714z m47.689143-578.121143a44.470857 44.470857 0 0 0 21.942857 31.012571c24.576 86.308571 106.496 86.308571 136.630857 0a48.566857 48.566857 0 0 0 21.942857-31.012571c0-11.995429 0-29.257143-13.750857-29.257143a70.802286 70.802286 0 0 0-22.528-53.248 72.850286 72.850286 0 0 0-55.296-19.309714 74.313143 74.313143 0 0 0-56.466286 18.724571 72.265143 72.265143 0 0 0-23.990857 54.125715h4.096c-12.580571-0.585143-12.580571 16.969143-12.580571 29.257142z" fill="#00489B" p-id="28934"></path></svg>