<?xml version="1.0" standalone="no"?><!DOCTYPE svg PUBLIC "-//W3C//DTD SVG 1.1//EN" "http://www.w3.org/Graphics/SVG/1.1/DTD/svg11.dtd"><svg t="1766283949638" class="icon" viewBox="0 0 1024 1024" version="1.1" xmlns="http://www.w3.org/2000/svg" p-id="9142" xmlns:xlink="http://www.w3.org/1999/xlink" width="200" height="200"><path d="M950.929798 413.21309c-2.769067-7.465019-8.277524-13.364379-15.471367-16.645099-14.959713-6.832615-32.567743-0.240477-39.400358 14.538111l-100.834547 218.102367c-48.972365-43.012629-108.148116-74.947969-172.863022-93.338829 69.079308-45.902446 109.683075-120.609938 109.683074-203.835431 0-135.599328-110.555955-245.884107-246.486833-245.884107S239.071957 196.434881 239.071957 332.034209s110.555955 245.914806 246.486834 245.914806h9.933233c102.639658 0 201.788819 39.61116 273.124518 108.840893l-73.924663 159.889547H133.75226c11.347442-92.676749 75.490322-177.106674 173.22425-227.283469 7.193843-3.551896 12.612249-9.962909 14.899338-17.60803 2.257413-7.55507 1.263783-15.471366-2.769066-22.333658-8.699126-14.598486-25.795503-19.504216-39.249933-11.739369C151.210887 629.54002 71.295789 747.801471 71.295789 876.327706v29.64825h640.371716c0.662079 0.029676 1.294482 0.060375 1.956562 0.060375 11.528568 0 22.213931-6.711865 27.02961-17.127075l209.43394-453.030957c3.310396-7.164167 3.611248-15.230889 0.842181-22.665209z m-467.026716 103.000885c-103.392812 0-187.491185-82.623789-187.491185-184.179766 0-101.977579 84.098373-184.962595 187.491185-184.962596s187.491185 82.623789 187.491185 184.179767c0 101.977579-84.099397 184.962595-187.491185 184.962595z" fill="#00489B" p-id="9143"></path></svg>