<?xml version="1.0" standalone="no"?><!DOCTYPE svg PUBLIC "-//W3C//DTD SVG 1.1//EN" "http://www.w3.org/Graphics/SVG/1.1/DTD/svg11.dtd"><svg t="1766284370343" class="icon" viewBox="0 0 1024 1024" version="1.1" xmlns="http://www.w3.org/2000/svg" p-id="12918" xmlns:xlink="http://www.w3.org/1999/xlink" width="200" height="200"><path d="M433.792 160c35.029333 0 66.474667 15.36 87.978667 39.68a117.077333 117.077333 0 0 1 82.517333-39.552l5.504-0.128h215.082667a117.333333 117.333333 0 0 1 117.248 112.938667l0.085333 4.394666v469.333334a117.333333 117.333333 0 0 1-112.938667 117.248l-4.394666 0.085333h-220.16a107.349333 107.349333 0 0 1-82.944 39.125333 107.349333 107.349333 0 0 1-82.944-39.125333h-220.16a117.333333 117.333333 0 0 1-117.333334-117.333333v-469.333334a117.333333 117.333333 0 0 1 117.333334-117.333333h215.125333z m40.106667 645.333333a48.896 48.896 0 0 0 95.786666 0h255.189334l3.456-0.085333a58.666667 58.666667 0 0 0 55.125333-55.125333l0.085333-3.456v-469.333334l-0.085333-3.413333a58.666667 58.666667 0 0 0-58.581333-55.253333h-215.082667l-3.456 0.085333a58.666667 58.666667 0 0 0-55.125333 55.125333l-0.085334 3.456v422.4a7.808 7.808 0 0 1-7.850666 7.808h-43.008a7.808 7.808 0 0 1-7.808-7.808V277.333333c0-29.738667-22.272-54.784-51.84-58.282666l-3.413334-0.298667-3.413333-0.085333H218.666667c-31.061333 0-56.746667 24.192-58.581334 55.210666L160 277.333333v469.333334c0 31.061333 24.192 56.746667 55.210667 58.581333l3.456 0.085333h255.189333z" fill="#00489B" p-id="12919"></path><path d="M226.474667 414.208h199.466666c4.309333 0 7.850667 3.541333 7.850667 7.850667V465.066667a7.808 7.808 0 0 1-7.850667 7.808H226.474667a7.808 7.808 0 0 1-7.808-7.808V422.058667c0-4.309333 3.498667-7.850667 7.808-7.850667z m0 117.333333h199.466666c4.309333 0 7.850667 3.541333 7.850667 7.850667v43.008a7.808 7.808 0 0 1-7.850667 7.808H226.474667a7.808 7.808 0 0 1-7.808-7.808v-43.008c0-4.309333 3.498667-7.850667 7.808-7.850667z m391.125333-117.333333h199.466667c4.266667 0 7.808 3.541333 7.808 7.850667V465.066667a7.808 7.808 0 0 1-7.808 7.808h-199.466667a7.808 7.808 0 0 1-7.808-7.808V422.058667c0-4.309333 3.498667-7.850667 7.808-7.850667z m0 117.333333h199.466667c4.266667 0 7.808 3.541333 7.808 7.850667v43.008a7.808 7.808 0 0 1-7.808 7.808h-199.466667a7.808 7.808 0 0 1-7.808-7.808v-43.008c0-4.309333 3.498667-7.850667 7.808-7.850667z" fill="#00489B" p-id="12920"></path></svg>