<?xml version="1.0" standalone="no"?><!DOCTYPE svg PUBLIC "-//W3C//DTD SVG 1.1//EN" "http://www.w3.org/Graphics/SVG/1.1/DTD/svg11.dtd"><svg t="1766233377503" class="icon" viewBox="0 0 1024 1024" version="1.1" xmlns="http://www.w3.org/2000/svg" p-id="1626" xmlns:xlink="http://www.w3.org/1999/xlink" width="200" height="200"><path d="M124.9 810.9h40.9-16.2c-13.8-0.8-24.7-12.2-24.7-26.2v26.2zM124.9 240.6h40.9-16.2c-13.8 0.8-24.7 12.2-24.7 26.2v-26.2zM883.8 811.4h-40.9 16.2c13.8-0.8 24.7-12.2 24.7-26.2v26.2z" fill="#00489B" p-id="1627"></path><path d="M287.4 317c-17.3-14.5-43.2-12.3-57.7 5.1-14.5 17.3-12.3 43.2 5.1 57.7l240.4 201.6c4.3 4.3 9.4 7.5 14.8 9.6 15.6 6.1 34 2.1 45.6-11.2l415.7-348.5c0.2-0.1 0.3-0.3 0.5-0.4 0.3-0.3 0.6-0.5 0.9-0.8 0.3-0.2 0.5-0.5 0.8-0.7 0.2-0.2 0.4-0.4 0.7-0.6l0.9-0.9 0.5-0.5c0.3-0.3 0.6-0.7 0.9-1.1 0.1-0.1 0.2-0.3 0.4-0.4l0.9-1.2c0.1-0.1 0.2-0.3 0.3-0.4l0.9-1.2c0.1-0.1 0.2-0.3 0.3-0.4 0.3-0.4 0.5-0.8 0.8-1.2 0.1-0.2 0.2-0.3 0.3-0.5 0.2-0.4 0.4-0.7 0.6-1.1 0.1-0.2 0.2-0.5 0.4-0.7 0.2-0.3 0.3-0.7 0.5-1 0.1-0.3 0.3-0.6 0.4-0.9 0.1-0.3 0.3-0.6 0.4-0.8 0.2-0.4 0.3-0.7 0.5-1.1 0.1-0.2 0.2-0.4 0.3-0.7 0.2-0.4 0.3-0.8 0.5-1.3 0.1-0.2 0.1-0.4 0.2-0.5 0.2-0.5 0.3-0.9 0.4-1.4 0-0.1 0.1-0.3 0.1-0.4 0.1-0.5 0.3-1 0.4-1.5 0-0.1 0.1-0.3 0.1-0.4l0.3-1.5c0-0.2 0.1-0.3 0.1-0.5 0.1-0.5 0.2-1 0.2-1.4 0-0.2 0.1-0.4 0.1-0.6 0.1-0.4 0.1-0.9 0.1-1.3 0-0.3 0-0.6 0.1-0.9 0-0.4 0.1-0.7 0.1-1.1v-1.1-0.7-0.2-1.4-0.7c0-0.5-0.1-1-0.1-1.5v-0.6c-0.1-0.5-0.1-1.1-0.2-1.6s-0.2-1-0.2-1.5c-0.1-0.3-0.1-0.6-0.2-0.9-0.1-0.4-0.2-0.8-0.3-1.3-0.1-0.2-0.1-0.5-0.2-0.7-0.1-0.4-0.2-0.8-0.4-1.3-0.1-0.2-0.1-0.4-0.2-0.7-0.1-0.4-0.3-0.8-0.4-1.2-0.1-0.2-0.1-0.5-0.2-0.7-0.1-0.4-0.3-0.8-0.5-1.2-0.1-0.2-0.2-0.4-0.3-0.7l-0.6-1.2-0.3-0.6c-0.2-0.5-0.5-1-0.7-1.5-0.1-0.1-0.1-0.2-0.2-0.3-1-1.8-2.1-3.5-3.3-5.2-0.1-0.1-0.1-0.2-0.2-0.2-0.4-0.5-0.7-0.9-1.1-1.4 0 0 0-0.1-0.1-0.1-0.1-0.1-0.2-0.2-0.3-0.4-0.3-0.4-0.6-0.7-0.9-1.1l-0.6-0.6c-0.2-0.3-0.5-0.5-0.7-0.8l-0.8-0.8-0.6-0.6c-0.3-0.3-0.6-0.6-1-0.8-0.2-0.1-0.3-0.3-0.5-0.4-0.4-0.3-0.7-0.6-1.1-0.9-0.2-0.1-0.3-0.2-0.5-0.4-0.4-0.3-0.8-0.5-1.1-0.8-0.2-0.1-0.3-0.2-0.5-0.3-0.4-0.2-0.7-0.5-1.1-0.7-0.2-0.1-0.4-0.2-0.6-0.4-0.3-0.2-0.7-0.4-1.1-0.6-0.3-0.1-0.5-0.3-0.8-0.4-0.3-0.2-0.6-0.3-0.9-0.5-0.3-0.2-0.6-0.3-0.9-0.5-0.3-0.1-0.5-0.2-0.8-0.3-0.4-0.2-0.8-0.3-1.1-0.5-0.2-0.1-0.4-0.2-0.6-0.2-0.4-0.2-0.9-0.3-1.3-0.5-0.2-0.1-0.3-0.1-0.5-0.2-0.5-0.2-1-0.3-1.5-0.5-0.1 0-0.3-0.1-0.4-0.1-0.5-0.1-1-0.3-1.5-0.4-0.1 0-0.2-0.1-0.4-0.1l-1.5-0.3c-0.1 0-0.3-0.1-0.4-0.1-0.5-0.1-1-0.2-1.5-0.2-0.2 0-0.4 0-0.6-0.1-0.4-0.1-0.9-0.1-1.3-0.2-0.3 0-0.5 0-0.8-0.1-0.4 0-0.8-0.1-1.1-0.1H106.3c-35.1 2.7-62.8 32.1-62.8 67.9v0.5h-0.1V281H43v543.4c0 37.6 30.5 68.1 68.1 68.1h0.5v0.1h790.2c33.3-1.7 60.3-27.3 64.1-60V405.1c0-22.6-18.3-41-41-41-22.6 0-41 18.3-41 41V811h-759V240.8h687.5L504.4 499l-217-182z" fill="#00489B" p-id="1628"></path></svg>