<?xml version="1.0" standalone="no"?><!DOCTYPE svg PUBLIC "-//W3C//DTD SVG 1.1//EN" "http://www.w3.org/Graphics/SVG/1.1/DTD/svg11.dtd"><svg t="1766192456550" class="icon" viewBox="0 0 1024 1024" version="1.1" xmlns="http://www.w3.org/2000/svg" p-id="37999" xmlns:xlink="http://www.w3.org/1999/xlink" width="200" height="200"><path d="M652.126316 318.446035h-323.368421v71.859649h323.368421v-71.859649zM652.126316 462.165333h-323.368421v71.859649h323.368421v-71.859649z" p-id="38000" fill="#00489B"></path><path d="M833.57193 102.867088h-610.807018c-19.761404 0-35.929825 16.168421-35.929824 35.929824v574.877193h-71.859649c-19.761404 0-35.929825 16.168421-35.929825 35.929825v71.859649c0 59.284211 50.301754 107.789474 113.178947 107.789474h492.238597c62.877193 0 113.178947-53.894737 113.178947-120.364913v-490.442105h107.789474c19.761404 0 35.929825-16.168421 35.929825-35.929824v-71.85965c-1.796491-59.284211-48.505263-107.789474-107.789474-107.789473z m-643.14386 754.526316c-23.354386 0-41.319298-16.168421-41.319298-35.929825v-35.929825h413.192982v34.133334c0 12.575439 1.796491 25.150877 7.185965 37.726316H190.42807z m533.557895-48.505264c0 26.947368-17.964912 48.505263-41.319298 48.505264h-3.592983c-25.150877 0-44.912281-16.168421-44.91228-37.726316v-70.063158c0-19.761404-16.168421-35.929825-35.929825-35.929825h-341.333333v-538.947368h467.087719v634.161403z m143.719298-562.301754h-71.859649v-71.859649h35.929825c19.761404 0 35.929825 16.168421 35.929824 35.929824v35.929825z" p-id="38001" fill="#00489B"></path></svg>