<?xml version="1.0" standalone="no"?><!DOCTYPE svg PUBLIC "-//W3C//DTD SVG 1.1//EN" "http://www.w3.org/Graphics/SVG/1.1/DTD/svg11.dtd"><svg t="1766127748094" class="icon" viewBox="0 0 1024 1024" version="1.1" xmlns="http://www.w3.org/2000/svg" p-id="8961" xmlns:xlink="http://www.w3.org/1999/xlink" width="200" height="200"><path d="M611.84 0c77.4144 0 140.16 62.5152 140.16 139.648v46.528h186.88a46.6432 46.6432 0 0 1 46.656 44.0832l0.064 2.4704a46.6304 46.6304 0 0 1-46.72 46.5408H892.16v605.0944c0 75.904-60.7744 137.6512-136.4864 139.584L752 1024h-467.2c-77.4144 0-140.16-62.5152-140.16-139.648V279.2832H97.92a46.6432 46.6432 0 0 1-46.656-44.0704L51.2 232.7296a46.6304 46.6304 0 0 1 46.72-46.5536h186.88v-46.5408C284.8 63.744 345.5744 1.984 421.2864 0.0512L424.96 0h186.88z m186.88 279.2704H238.08v605.0944c0 24.8704 19.584 45.184 44.2368 46.4768l2.4832 0.064h467.2a46.6304 46.6304 0 0 0 46.72-46.5408V279.2704z m-373.76 139.648a46.6304 46.6304 0 0 1 46.72 46.5408v279.2704a46.6304 46.6304 0 0 1-46.72 46.5408 46.6304 46.6304 0 0 1-46.72-46.5408V465.4592a46.6304 46.6304 0 0 1 46.72-46.5536z m186.88 0a46.6304 46.6304 0 0 1 46.72 46.5408v279.2704a46.6304 46.6304 0 0 1-46.72 46.5408 46.6304 46.6304 0 0 1-46.72-46.5408V465.4592a46.6304 46.6304 0 0 1 46.72-46.5536z m0-325.824H424.96a46.6304 46.6304 0 0 0-46.72 46.5408v46.5408h280.32v-46.5408c0-24.8704-19.584-45.184-44.2368-46.4768l-2.4832-0.064z" fill="#00489B" p-id="8962"></path></svg>