<?xml version="1.0" standalone="no"?><!DOCTYPE svg PUBLIC "-//W3C//DTD SVG 1.1//EN" "http://www.w3.org/Graphics/SVG/1.1/DTD/svg11.dtd"><svg t="1766191509110" class="icon" viewBox="0 0 1024 1024" version="1.1" xmlns="http://www.w3.org/2000/svg" p-id="31102" xmlns:xlink="http://www.w3.org/1999/xlink" width="200" height="200"><path d="M860.821261 1023.999787a99.797313 99.797313 0 0 1-88.895982-145.59997c-84.010649-58.090655-263.359945-166.677299-432.76791-169.130631a21.375996 21.375996 0 0 1-19.434662-29.439994c3.114666-7.658665 74.730651-188.927961-86.058649-293.397273a21.333329 21.333329 0 0 1-1.813333-34.474659l198.975959-161.407966a21.354662 21.354662 0 0 1 33.343993 8.874664c49.578656 128.511973 163.882633 147.711969 227.605286 147.71197 24.895995 0 41.514658-2.965333 41.685324-3.008a21.333329 21.333329 0 0 1 24.810662 25.066662c-31.65866 162.047966 30.527994 349.887927 76.223984 458.389238 37.610659-10.239998 79.27465 2.986666 103.914645 33.343993a100.181312 100.181312 0 0 1-14.634664 140.693304A100.159979 100.159979 0 0 1 860.821261 1023.999787z m-38.613326-147.605303a20.970662 20.970662 0 0 1-4.863999 10.410665 57.173321 57.173321 0 0 0-1.109333 73.322651c19.285329 23.765328 56.746655 27.775994 80.661317 8.383998a57.429321 57.429321 0 0 0 8.362665-80.639983c-16.895996-20.863996-48.341323-26.965328-71.935985-14.058664a19.327996 19.327996 0 0 1-11.114665 2.581333z m-454.101238-208.511956c165.759965 12.245331 330.261265 107.797311 426.133244 174.05863-45.013324-107.434644-104.511978-288.085273-82.453316-452.671906-63.039987 3.690666-205.84529-6.079999-275.797276-147.925302l-155.519967 126.165307c123.946641 97.706646 103.445312 240.38395 87.637315 300.373271z" p-id="31103" fill="#00489B"></path><path d="M817.002603 891.285148a21.247996 21.247996 0 0 1-16.575996-7.893332L510.890667 526.442557a21.333329 21.333329 0 0 1 33.13066-26.879994l289.514606 356.949259a21.311996 21.311996 0 0 1-16.53333 34.773326zM213.248062 415.893247a21.247996 21.247996 0 0 1-16.575996-7.893332l-128.68264-158.634634a21.311996 21.311996 0 0 1 3.114666-29.99466L335.594703 4.821332a21.333329 21.333329 0 0 1 29.994661 3.114666l128.703973 158.634634a21.290662 21.290662 0 0 1-3.135999 29.99466L226.666726 411.114581a21.162662 21.162662 0 0 1-13.418664 4.778666zM114.560083 239.061284l101.802645 125.503973 231.359952-187.669294-101.802645-125.503974L114.560083 239.061284zM313.664041 467.029236a21.333329 21.333329 0 0 1-13.439997-37.909325l192.810627-156.351968a21.333329 21.333329 0 1 1 26.879994 33.151993l-192.810626 156.351968a21.333329 21.333329 0 0 1-13.439998 4.757332zM757.119949 1023.978453H187.648068a21.333329 21.333329 0 1 1 0-42.666657H757.119949a21.333329 21.333329 0 1 1 0 42.666657z" p-id="31104" fill="#00489B"></path></svg>