<?xml version="1.0" standalone="no"?><!DOCTYPE svg PUBLIC "-//W3C//DTD SVG 1.1//EN" "http://www.w3.org/Graphics/SVG/1.1/DTD/svg11.dtd"><svg t="1766410002784" class="icon" viewBox="0 0 1024 1024" version="1.1" xmlns="http://www.w3.org/2000/svg" p-id="8981" xmlns:xlink="http://www.w3.org/1999/xlink" width="200" height="200"><path d="M727.996402 637.350916c0-11.887748-6.810103-21.559015-15.567557-28.688389l-1.157359-0.838088c-22.557762-16.270569-46.200228-29.753651-71.813582-41.147142 74.333986-50.41318 123.302257-136.086421 123.302257-233.389538 0-155.129126-124.381845-280.893458-277.800004-280.893458S207.16834 178.157609 207.16834 333.287759c0 96.819093 48.463782 182.180226 122.17662 232.685503-128.408555 56.215326-221.255173 179.023326-236.610906 325.861626l-0.100284 4.593622c0 20.974707 17.7165 37.96773 39.569204 37.96773s39.550785-16.994046 39.550785-37.96773l-0.082888-1.588171 0.016373-0.314155c19.125593-156.667156 148.597363-278.167371 308.028469-280.866852 1.784646 0.036839 3.449565 0.531096 5.243421 0.531096 1.336438 0 2.562359-0.375553 3.889587-0.393973 65.63179 0.887206 125.470643 21.358447 175.399799 56.883545 6.716982 4.730745 14.010085 9.133008 22.978341 9.133008 22.37459 0 40.801265-17.557888 40.801265-39.008432L727.996402 637.350916zM489.690902 533.038152c-1.573845-0.01842-3.047406-0.384763-4.621251-0.384763-1.592264 0-3.075035 0.429789-4.6673 0.448208-107.387799-2.553149-193.929828-90.531899-193.929828-199.731974 0-110.801549 88.830141-200.629413 198.413955-200.629413s198.423165 89.826841 198.423165 200.629413C683.309644 442.460204 596.923158 530.301831 489.690902 533.038152z" fill="#00489B" p-id="8982"></path><path d="M936.645466 785.79376l-64.045665-0.125867-0.25071-61.657268c-0.089028-17.118889-14.039761-31.069623-31.15865-31.15865-17.118889-0.099261-30.913057 13.693884-30.818913 30.818913l0.569982 61.883419-63.128783-0.12075c-17.113773-0.094144-30.913057 12.741185-30.813796 29.860075 0.078795 17.108656 14.039761 31.069623 31.15865 31.15865l63.349817 0.445138 0.581238 62.700017c0.094144 17.113773 13.075807 31.05939 30.189579 31.153534 17.118889 0.089028 30.913057-13.704117 30.824029-30.824029l-0.25685-62.594617 64.150042 0.451278c17.10354 0.104377 30.90794-13.699 30.818913-30.818913C967.720206 799.84887 953.759239 785.887904 936.645466 785.79376z" fill="#00489B" p-id="8983"></path></svg>