<?xml version="1.0" standalone="no"?><!DOCTYPE svg PUBLIC "-//W3C//DTD SVG 1.1//EN" "http://www.w3.org/Graphics/SVG/1.1/DTD/svg11.dtd"><svg t="1766208468509" class="icon" viewBox="0 0 1024 1024" version="1.1" xmlns="http://www.w3.org/2000/svg" p-id="41427" xmlns:xlink="http://www.w3.org/1999/xlink" width="200" height="200"><path d="M586.412 926.405v-517.897c0-8.542 3.42-16.893 9.639-23.202l243.765-253.017h-657l244.17 253.188c5.811 5.974 9.402 14.131 9.432 23.126l-0.001 311.565 59.436 44.361c16.065 12.060 18.477 33.786 5.625 48.636s-36.54 17.073-52.614 5.193l-73.286-55.125c-8.405-6.132-13.817-15.932-13.86-26.997v-314.741l-290.133-300.906c-9.847-10.197-12.258-24.678-6.236-37.117 6.030-12.438 19.476-20.422 34.137-20.422h824.464c14.858 0 28.117 7.983 34.137 20.61 6.030 12.438 3.42 27.099-6.426 37.125l-290.547 300.897v504.72c0 19.117-16.668 34.524-37.35 34.524s-37.35-15.408-37.35-34.524z" p-id="41428" fill="#019a72"></path></svg>