<?xml version="1.0" standalone="no"?><!DOCTYPE svg PUBLIC "-//W3C//DTD SVG 1.1//EN" "http://www.w3.org/Graphics/SVG/1.1/DTD/svg11.dtd"><svg t="1766305216302" class="icon" viewBox="0 0 1024 1024" version="1.1" xmlns="http://www.w3.org/2000/svg" p-id="8579" xmlns:xlink="http://www.w3.org/1999/xlink" width="200" height="200"><path d="M210.140533 433.365058 152.777057 491.469408 456.137203 792.703123 1022.028601 185.922457 961.171558 129.083937 453.323111 673.678286Z" p-id="8580" fill="#d81e06"></path><path d="M981.676567 344.580966l-78.668711 23.328311 7.126304 24.035416c11.495822 38.767955 17.326621 79.160921 17.326621 120.06247 0 232.527914-189.18271 421.704484-421.719834 421.704484s-421.719834-189.175547-421.719834-421.704484c0-232.537124 189.18271-421.719834 421.719834-421.719834 107.910709 0 210.571856 40.720424 289.073768 114.660436l18.256806 17.191544 56.239885-59.752896-18.248619-17.183358c-93.797269-88.323605-216.435401-136.966465-345.32184-136.966465-67.981301 0-133.958968 13.323447-196.104353 39.59888-59.972906 25.364691-113.844861 61.684898-160.116721 107.950617-46.257533 46.260603-82.57467 100.129488-107.941408 160.108534-26.281573 62.127989-39.60809 128.108726-39.60809 196.11254 0 67.99051 13.326517 133.968178 39.607066 196.095143 25.367761 59.98007 61.684898 113.848954 107.942431 160.110581 46.273906 46.266743 100.145861 82.58695 160.118767 107.948571 62.138222 26.276457 128.114866 39.599903 196.102307 39.599903s133.966131-13.32447 196.10333-39.599903c59.984163-25.366737 113.855094-61.685921 160.116721-107.949594 46.243207-46.242184 82.562391-100.111069 107.944478-160.108534 26.275433-62.117756 39.597857-128.0944 39.597857-196.096167 0-48.790216-6.965645-97.030917-20.700461-143.382595L981.676567 344.580966z" p-id="8581" fill="#d81e06"></path></svg>