<?xml version="1.0" standalone="no"?><!DOCTYPE svg PUBLIC "-//W3C//DTD SVG 1.1//EN" "http://www.w3.org/Graphics/SVG/1.1/DTD/svg11.dtd"><svg t="1766407594559" class="icon" viewBox="0 0 1024 1024" version="1.1" xmlns="http://www.w3.org/2000/svg" p-id="7948" xmlns:xlink="http://www.w3.org/1999/xlink" width="200" height="200"><path d="M635.968 83.52a247.552 247.552 0 0 1 235.008 206.464h-68.992l110.976 165.44L1024 289.984h-76.8A324.992 324.992 0 0 0 643.264 1.6a40.512 40.512 0 0 0-42.048 40.96 41.856 41.856 0 0 0 34.752 40.96zM463.488 0.32H76.544A40.704 40.704 0 0 0 37.184 42.88v368.64a40.768 40.768 0 0 0 39.36 42.624h386.432a40.768 40.768 0 0 0 39.36-42.624V42.88A39.936 39.936 0 0 0 463.488 0z m-37.696 371.904H114.24V82.24h311.232z m-37.76 566.976a246.976 246.976 0 0 1-239.296-247.424h73.856L111.552 526.336 0 691.264h73.856a326.4 326.4 0 0 0 306.816 328.96 40.448 40.448 0 0 0 42.048-40.96 39.68 39.68 0 0 0-34.688-40.384z m561.088-370.816H562.112a40.704 40.704 0 0 0-39.296 42.56v370.496a40.704 40.704 0 0 0 39.296 42.56h386.432a40.256 40.256 0 0 0 38.848-42.56V611.2a41.152 41.152 0 0 0-38.272-43.136z m-37.76 372.416H599.872v-288.32h311.488z" fill="#d81e06" p-id="7949"></path></svg>